<svg width="100%" viewBox="0 0 680 520" xmlns="http://www.w3.org/2000/svg">
<style>
  :root { --t: #2C2C2A; --s: #888780; }
  @media (prefers-color-scheme: dark) { :root { --t: #F1EFE8; --s: #888780; } }
  text { font-family: -apple-system, BlinkMacSystemFont, "Segoe UI", sans-serif; }
  .th { font-size: 14px; font-weight: 500; fill: var(--t); }
  .ts { font-size: 12px; font-weight: 400; fill: var(--t); }
  .c-teal rect { fill: #E1F5EE; stroke: #0F6E56; }
  .c-teal .th { fill: #085041; }
  .c-teal .ts { fill: #085041; }
  .c-purple rect { fill: #EEEDFE; stroke: #534AB7; }
  .c-purple .th { fill: #3C3489; }
  .c-purple .ts { fill: #3C3489; }
  @media (prefers-color-scheme: dark) {
    .c-teal rect { fill: #085041; stroke: #5DCAA5; }
    .c-teal .th { fill: #9FE1CB; }
    .c-teal .ts { fill: #9FE1CB; }
    .c-purple rect { fill: #26215C; stroke: #AFA9EC; }
    .c-purple .th { fill: #CECBF6; }
    .c-purple .ts { fill: #CECBF6; }
  }
</style>
<defs>
<marker id="arrow" viewBox="0 0 10 10" refX="8" refY="5" markerWidth="6" markerHeight="6" orient="auto-start-reverse"><path d="M2 1L8 5L2 9" fill="none" stroke="context-stroke" stroke-width="1.5" stroke-linecap="round" stroke-linejoin="round"/></marker>
</defs>

<text class="th" x="340" y="28" text-anchor="middle">Regulatory drivers of skills demand</text>
<text class="ts" x="340" y="46" text-anchor="middle">Six simultaneous regulatory changes creating training pressure through 2028</text>

<line x1="80" y1="80" x2="640" y2="80" stroke="var(--t)" stroke-width="1" opacity="0.3"/>

<line x1="80" y1="74" x2="80" y2="86" stroke="var(--t)" stroke-width="1" opacity="0.3"/>
<text class="ts" x="80" y="100" text-anchor="middle">2024</text>

<line x1="220" y1="74" x2="220" y2="86" stroke="var(--t)" stroke-width="1" opacity="0.3"/>
<text class="ts" x="220" y="100" text-anchor="middle">2025</text>

<line x1="360" y1="74" x2="360" y2="86" stroke="var(--t)" stroke-width="1" opacity="0.3"/>
<text class="ts" x="360" y="100" text-anchor="middle">2026</text>

<line x1="500" y1="74" x2="500" y2="86" stroke="var(--t)" stroke-width="1" opacity="0.3"/>
<text class="ts" x="500" y="100" text-anchor="middle">2027</text>

<line x1="640" y1="74" x2="640" y2="86" stroke="var(--t)" stroke-width="1" opacity="0.3"/>
<text class="ts" x="640" y="100" text-anchor="middle">2028</text>

<circle cx="115" cy="80" r="5" fill="#0F6E56"/>
<line x1="115" y1="85" x2="115" y2="120" stroke="var(--t)" stroke-width="0.5" opacity="0.3"/>
<g class="c-teal">
<rect x="40" y="120" width="280" height="56" rx="8" stroke-width="0.5"/>
<text class="th" x="52" y="142" dominant-baseline="central">SARB cybersecurity directive</text>
<text class="ts" x="52" y="162" dominant-baseline="central">Board accountability, incident response, MFA, training</text>
</g>
<rect x="282" y="124" width="34" height="16" rx="4" fill="#0F6E56"/>
<text x="299" y="136" text-anchor="middle" dominant-baseline="central" style="font-size:10px;font-weight:500;fill:#E1F5EE">Strong</text>

<circle cx="255" cy="80" r="5" fill="#0F6E56"/>
<line x1="255" y1="85" x2="255" y2="196" stroke="var(--t)" stroke-width="0.5" opacity="0.3"/>
<line x1="255" y1="80" x2="605" y2="80" stroke="#0F6E56" stroke-width="3" opacity="0.2"/>
<g class="c-teal">
<rect x="40" y="196" width="280" height="56" rx="8" stroke-width="0.5"/>
<text class="th" x="52" y="218" dominant-baseline="central">Basel IV implementation</text>
<text class="ts" x="52" y="238" dominant-baseline="central">Credit risk, FRTB, data quality, output floors to 2028</text>
</g>
<rect x="282" y="200" width="34" height="16" rx="4" fill="#0F6E56"/>
<text x="299" y="212" text-anchor="middle" dominant-baseline="central" style="font-size:10px;font-weight:500;fill:#E1F5EE">Strong</text>

<circle cx="430" cy="80" r="5" fill="#534AB7"/>
<line x1="430" y1="85" x2="430" y2="272" stroke="var(--t)" stroke-width="0.5" opacity="0.3"/>
<g class="c-purple">
<rect x="340" y="272" width="280" height="56" rx="8" stroke-width="0.5"/>
<text class="th" x="352" y="294" dominant-baseline="central">JIBAR-to-ZARONIA transition</text>
<text class="ts" x="352" y="314" dominant-baseline="central">Treasury, trading, legal documentation</text>
</g>
<rect x="582" y="276" width="34" height="16" rx="4" fill="#534AB7"/>
<text x="599" y="288" text-anchor="middle" dominant-baseline="central" style="font-size:10px;font-weight:500;fill:#EEEDFE">Mod</text>

<circle cx="290" cy="80" r="5" fill="#534AB7"/>
<line x1="290" y1="85" x2="290" y2="348" stroke="var(--t)" stroke-width="0.5" opacity="0.3"/>
<g class="c-purple">
<rect x="340" y="348" width="280" height="56" rx="8" stroke-width="0.5"/>
<text class="th" x="352" y="370" dominant-baseline="central">FATF / AML-CFT compliance</text>
<text class="ts" x="352" y="390" dominant-baseline="central">KYC, sanctions screening, transaction monitoring</text>
</g>
<rect x="582" y="352" width="34" height="16" rx="4" fill="#534AB7"/>
<text x="599" y="364" text-anchor="middle" dominant-baseline="central" style="font-size:10px;font-weight:500;fill:#EEEDFE">Mod</text>

<circle cx="395" cy="80" r="5" fill="#534AB7"/>
<line x1="395" y1="85" x2="395" y2="424" stroke="var(--t)" stroke-width="0.5" opacity="0.3"/>
<g class="c-purple">
<rect x="40" y="424" width="280" height="56" rx="8" stroke-width="0.5"/>
<text class="th" x="52" y="446" dominant-baseline="central">COFI Bill</text>
<text class="ts" x="52" y="466" dominant-baseline="central">Outcomes-based compliance, activity licensing</text>
</g>
<rect x="282" y="428" width="34" height="16" rx="4" fill="#534AB7"/>
<text x="299" y="440" text-anchor="middle" dominant-baseline="central" style="font-size:10px;font-weight:500;fill:#EEEDFE">Mod</text>

<g class="c-purple">
<rect x="340" y="424" width="280" height="56" rx="8" stroke-width="0.5"/>
<text class="th" x="352" y="446" dominant-baseline="central">Climate risk disclosures</text>
<text class="ts" x="352" y="466" dominant-baseline="central">TCFD/ISSB, scenario modelling, ESG data</text>
</g>
<rect x="582" y="428" width="34" height="16" rx="4" fill="#534AB7"/>
<text x="599" y="440" text-anchor="middle" dominant-baseline="central" style="font-size:10px;font-weight:500;fill:#EEEDFE">Mod</text>

</svg>